<svg width="75" height="50" viewBox="0 0 75 50" fill="none" xmlns="http://www.w3.org/2000/svg">
<path d="M69.1763 49.9774C65.7161 49.9774 63.6642 48.2066 63.5071 45.6564H66.8153C66.8153 46.5066 67.2864 47.6381 69.3334 47.7084C70.752 47.7084 71.5371 46.8585 71.5371 46.2195C71.38 45.2285 70.1185 45.1582 68.8621 44.9417C67.4435 44.736 66.3443 44.4489 65.5538 44.097C64.4546 43.5285 63.821 42.321 63.821 41.0486C63.821 38.7796 65.7161 37.0088 69.0192 37.0088C72.1707 37.0088 74.2174 38.6391 74.3689 41.1189H71.2231C71.2231 40.4851 71.066 39.4187 69.1761 39.4187C67.9146 39.4187 67.1296 39.6298 66.9724 40.5502C66.9724 41.8282 69.6474 41.7577 71.6942 42.2505C73.5839 42.7487 74.8454 43.9507 74.8454 45.6564C74.8454 48.7753 72.3275 49.9774 69.1763 49.9774ZM8.88867 29.0521L19.7507 22.7438L25.5769 32.7397H10.9355" fill="white"/>
<path d="M31.7305 49.6022V36.9858Z" fill="white"/>
<path d="M31.7305 49.6022V36.9858" stroke="white" stroke-width="3.38679"/>
<path d="M3.84755 43.4806C3.84755 45.4623 5.58013 47.0922 7.46438 47.0922C9.51658 47.0922 11.0869 45.4623 11.0869 43.4806C11.0869 41.5692 9.51658 39.8689 7.46438 39.8689C5.58013 39.8689 3.84755 41.5692 3.84755 43.4806ZM7.30752 50C3.84731 50 0.858398 47.0922 0.858398 43.4806C0.858398 39.8689 3.84755 37.0317 7.30752 37.0317C8.72614 37.0317 9.98765 37.3891 11.0869 38.1632V37.1723H14.2383V49.7129H11.0871V48.9333C10.145 49.6426 8.72614 50 7.30752 50ZM49.3493 32.7376L34.2368 6.37859L45.0986 0L63.9907 32.7376M18.3319 43.4806C18.3319 45.4623 19.9078 47.0922 21.9544 47.0922C23.8386 47.0922 25.5769 45.4623 25.5769 43.4806C25.5769 41.5692 23.8386 39.8689 21.9544 39.8689C19.9076 39.8689 18.3319 41.5692 18.3319 43.4806ZM21.7973 50C18.1748 50 15.343 47.0922 15.343 43.4806C15.343 39.8689 18.1748 37.0317 21.7973 37.0317C23.2105 37.0317 24.4722 37.3891 25.5769 38.1632V32.8513H28.7229V49.7129H25.5766V48.9333C24.472 49.6426 23.2107 50 21.7973 50ZM21.6421 17.7867L32.6611 11.5544L44.7849 32.7369H33.2895V35.8558H30.1432V32.7369M72.8043 35.9539C72.0138 35.9539 71.2288 35.2446 71.2288 34.3945C71.2288 33.5444 72.0138 32.8351 72.8043 32.8351C73.7464 32.8351 74.3802 33.5446 74.3802 34.3945C74.3802 35.2444 73.7464 35.9539 72.8043 35.9539ZM72.8043 33.0518C72.0138 33.0518 71.5427 33.6852 71.5427 34.3945C71.5427 35.1038 72.0138 35.7428 72.8043 35.7428C73.5895 35.7428 74.0606 35.1041 74.0606 34.3945C74.0606 33.6849 73.5895 33.0518 72.8043 33.0518Z" fill="white"/>
<path d="M73.1291 35.25L72.8149 34.5407H72.501V35.25H72.2627V33.5498H72.972C73.1291 33.5498 73.4431 33.7666 73.4431 34.048C73.4431 34.3294 73.286 34.4704 73.1291 34.5407L73.4431 35.25M72.8149 33.7666H72.501V34.3296H72.8149C73.1291 34.3296 73.1291 34.2593 73.1291 34.048C73.1291 33.902 73.1291 33.7666 72.8149 33.7666ZM52.0114 43.4806C52.0114 45.4622 53.5874 47.0922 55.6339 47.0922C57.5236 47.0922 59.251 45.4622 59.251 43.4806C59.251 41.5692 57.5236 39.8689 55.6339 39.8689C53.5872 39.8689 52.0114 41.5692 52.0114 43.4806ZM55.4717 50C51.8546 50 49.0225 47.0922 49.0225 43.4806C49.0225 39.8689 51.8546 37.0317 55.4714 37.0317C56.8903 37.0317 58.1518 37.3891 59.251 38.1632V37.1723H62.2454V49.7129H59.2513V48.9333C58.1518 49.6426 56.8905 50 55.4717 50ZM37.538 43.4806C37.538 45.4622 39.2706 47.0922 41.1602 47.0922C43.2073 47.0922 44.7827 45.4622 44.7827 43.4806C44.7827 41.5692 43.207 39.8689 41.1602 39.8689C39.2706 39.8689 37.538 41.5692 37.538 43.4806ZM44.7827 32.8513H47.9287V49.7129H44.7827V48.9333C43.8352 49.6426 42.5737 50 41.1602 50C37.538 50 34.5488 47.0922 34.5488 43.4806C34.5488 39.8689 37.538 37.0317 41.1602 37.0317C42.5734 37.0317 43.8352 37.3891 44.7827 38.1632V32.8513Z" fill="white"/>
</svg>
