<svg width="16" height="16" viewBox="0 0 24 24" fill="none" xmlns="http://www.w3.org/2000/svg">
<path fill-rule="evenodd" clip-rule="evenodd" d="M4.74081 12.1638L12.8591 4.04551C13.1385 3.76615 13.5914 3.76615 13.8708 4.04551L18.381 8.55568C18.6603 8.83504 18.6603 9.28799 18.381 9.56735L10.2627 17.6856C9.98329 17.965 9.53034 17.965 9.25098 17.6856L4.74081 13.1755C4.46145 12.8961 4.46145 12.4431 4.74081 12.1638ZM3.44258 14.4737C2.44622 13.4773 2.44622 11.862 3.44258 10.8656L11.5609 2.74727C12.5572 1.75091 14.1727 1.75091 15.1691 2.74727L19.6792 7.25743C20.6755 8.2538 20.6755 9.86921 19.6792 10.8656L18.068 12.4768L21.6814 16.0901C23.0333 17.4422 23.0333 19.634 21.6814 20.9861C20.3295 22.338 18.1375 22.338 16.7856 20.9861L13.1722 17.3726L11.5609 18.9839C10.5645 19.9803 8.9491 19.9803 7.95275 18.9839L3.44258 14.4737ZM14.4704 16.0744L18.0837 19.6878C18.7188 20.3227 19.7482 20.3227 20.3831 19.6878C21.0181 19.0529 21.0181 18.0233 20.3831 17.3884L16.7697 13.7751L14.4704 16.0744Z" fill="#27272a"/>
</svg>
