<svg width="27" height="33" viewBox="0 0 27 33" fill="none" xmlns="http://www.w3.org/2000/svg">
<path d="M3.76977 30.4473C5.17678 31.626 6.8431 32.4545 8.63213 32.8649C8.80332 32.9209 8.91852 32.6969 8.80332 32.5849C4.97136 28.929 7.07694 24.9722 8.63213 23.1882C9.74092 21.9146 11.3201 19.817 11.2049 17.0042C11.2049 16.7226 11.4929 16.4971 11.7201 16.6666C13.8945 17.7914 15.3809 20.2666 15.7809 22.2906C16.4113 21.673 16.6401 20.7162 16.6401 19.873C16.6401 19.5914 16.9825 19.3658 17.2689 19.5914C19.328 21.4474 22.8736 27.7466 17.1537 32.6953C17.0401 32.8089 17.1537 33.0345 17.2689 32.9785C19.0033 32.5238 20.6343 31.7406 22.0736 30.6713C31.3967 23.4714 25.3328 10.7035 21.3856 6.48593C20.872 5.97874 19.9568 6.31633 19.9568 7.04753C19.8992 8.56752 19.4416 10.2539 18.2416 11.3787C17.3265 7.55472 14.2769 3.21076 9.92971 1.07318C9.35852 0.791578 8.67213 1.24117 8.72973 1.86037C8.84172 7.09233 5.42895 10.4235 2.45458 14.7547C-0.177401 18.6346 -1.89259 25.7786 3.76977 30.4473Z" fill="#4E7772"/>
</svg>
