<svg width="204" height="51" viewBox="0 0 204 51" fill="none" xmlns="http://www.w3.org/2000/svg">
<path d="M86.2445 12.9205L91.3667 16.8165C91.4326 16.7453 91.4997 16.6745 91.5682 16.6043C94.1776 13.9295 98.5863 13.0409 100.141 9.64306C101.185 7.36245 100.966 4.98559 98.5343 3.1359C94.0243 -0.294654 86.7924 6.72464 86.2445 12.9205ZM84.9082 14.6164C77.7876 21.1928 89.1849 27.6589 90.1196 18.5801L84.9082 14.6164Z" fill="white"/>
<path d="M6.32725 41.3446L0 19.8705H8.54247L12.9714 37.1208H8.88999L16.4358 14.3974H24.1241L31.3852 37.1208H27.3987L34.8971 15.6222H42.8226L33.6632 41.3446H24.9309L18.7613 23.5478H21.4189L15.0596 41.3446H6.32725Z" fill="white"/>
<path d="M58.5075 41.3446V36.5513L57.8905 35.3648V26.5376C57.8905 25.1139 57.4476 24.0223 56.5617 23.263C55.7075 22.472 54.3312 22.0766 52.4329 22.0766C51.1989 22.0766 49.9492 22.2822 48.6837 22.6935C47.4181 23.0732 46.3424 23.611 45.4565 24.3071L42.4192 18.185C43.8746 17.2358 45.6147 16.5081 47.6396 16.0019C49.6961 15.4641 51.7368 15.1951 53.7617 15.1951C57.938 15.1951 61.1652 16.1601 63.4432 18.0901C65.7528 19.9884 66.9076 22.9783 66.9076 27.0597V41.3446H58.5075ZM50.9142 41.7717C48.8577 41.7717 47.1175 41.4237 45.6938 40.7276C44.2701 40.0316 43.1785 39.0824 42.4192 37.8801C41.6915 36.6779 41.3276 35.3332 41.3276 33.8462C41.3276 32.2642 41.7231 30.9038 42.5141 29.7648C43.3367 28.5941 44.5864 27.7083 46.2633 27.1071C47.9402 26.4743 50.1074 26.158 52.7651 26.158H58.8397V30.8563H53.999C52.5436 30.8563 51.5153 31.0936 50.9142 31.5682C50.3447 32.0428 50.06 32.6755 50.06 33.4665C50.06 34.2575 50.3605 34.8903 50.9617 35.3648C51.5628 35.8394 52.3854 36.0767 53.4295 36.0767C54.4103 36.0767 55.2962 35.8394 56.0871 35.3648C56.9097 34.8586 57.5109 34.0993 57.8905 33.0869L59.1245 36.4089C58.6499 38.1807 57.7165 39.5253 56.3244 40.4429C54.964 41.3288 53.1606 41.7717 50.9142 41.7717Z" fill="white"/>
<path d="M69.476 41.3446V6.13062H78.4931V41.3446H69.476Z" fill="white"/>
<path d="M88.7282 36.5988L88.9655 25.8258L99.4538 15.6222H110.132L98.5046 27.6292L93.9012 31.3309L88.7282 36.5988ZM81.2298 41.3446V25.7289H90.2469V41.3446H81.2298ZM98.7021 39.9285L92.2401 31.4733L97.8402 24.5444L109.617 39.9285H98.7021Z" fill="white"/>
<path d="M115.188 41.3446L106.028 15.6222H110.3H114.571L121.832 37.1208H117.75L125.296 15.6222H132.985L140.246 37.1208H136.259L143.758 15.6222H151.683L142.524 41.3446H133.791L127.622 23.5478H130.279L123.92 41.3446H115.188Z" fill="white"/>
<path d="M167.368 41.3446V36.5513L166.751 35.3648V26.5376C166.751 25.1139 166.308 24.0223 165.422 23.263C164.568 22.472 163.192 22.0766 161.293 22.0766C160.059 22.0766 158.81 22.2822 157.544 22.6935C156.279 23.0732 155.203 23.611 154.317 24.3071L151.28 18.185C152.735 17.2358 154.475 16.5081 156.5 16.0019C158.557 15.4641 160.597 15.1951 162.622 15.1951C166.799 15.1951 170.026 16.1601 172.304 18.0901C174.613 19.9884 175.768 22.9783 175.768 27.0597V41.3446H167.368ZM159.775 41.7717C157.718 41.7717 155.978 41.4237 154.554 40.7276C153.131 40.0316 152.039 39.0824 151.28 37.8801C150.552 36.6779 150.188 35.3332 150.188 33.8462C150.188 32.2642 150.584 30.9038 151.375 29.7648C152.197 28.5941 153.447 27.7083 155.124 27.1071C156.801 26.4743 158.968 26.158 161.626 26.158H167.7V30.8563H162.859C161.404 30.8563 160.376 31.0936 159.775 31.5682C159.205 32.0428 158.92 32.6755 158.92 33.4665C158.92 34.2575 159.221 34.8903 159.822 35.3648C160.423 35.8394 161.246 36.0767 162.29 36.0767C163.271 36.0767 164.157 35.8394 164.948 35.3648C165.77 34.8586 166.371 34.0993 166.751 33.0869L167.985 36.4089C167.51 38.1807 166.577 39.5253 165.185 40.4429C163.824 41.3288 162.021 41.7717 159.775 41.7717Z" fill="white"/>
<path d="M182.287 50.9786C180.926 50.9786 179.55 50.7571 178.158 50.3142C176.797 49.9029 175.69 49.3492 174.836 48.6531L177.968 42.3412C178.506 42.8158 179.123 43.1796 179.819 43.4327C180.547 43.7175 181.258 43.8599 181.954 43.8599C182.935 43.8599 183.71 43.6384 184.28 43.1954C184.849 42.7525 185.34 42.0564 185.751 41.1073L186.938 38.1174L187.649 37.2157L194.966 19.8705H203.556L193.866 42.3887C192.981 44.6034 191.952 46.3277 190.782 47.5616C189.643 48.8271 188.361 49.713 186.938 50.2192C185.545 50.7255 183.995 50.9786 182.287 50.9786ZM185.799 42.4361L174.456 15.6222H183.71L192.063 36.4089L185.799 42.4361Z" fill="white"/>
<path d="M88.7543 36.6101L88.9915 25.837L99.4798 15.6335H110.158L98.5306 27.6405L93.9272 31.3422L88.7543 36.6101ZM81.2559 41.3559V25.7402H90.2729V41.3559H81.2559ZM98.7281 39.9398L92.2662 31.4846L97.8662 24.5557L109.643 39.9398H98.7281Z" fill="white"/>
</svg>
