<svg width="160" height="40" viewBox="0 0 160 40" fill="none" xmlns="http://www.w3.org/2000/svg">
<path d="M67.6712 10.1378L71.6903 13.1947C71.8412 13.0316 72.0008 12.8714 72.1697 12.7162C74.1124 10.9305 77.1172 10.2858 78.375 7.96607C79.4097 6.05792 79.3649 4.02027 77.3143 2.46043C73.7755 -0.23131 68.1011 5.27629 67.6712 10.1378ZM66.6227 11.4685C61.0356 16.6286 69.9783 21.7021 70.7117 14.5785L66.6227 11.4685Z" fill="#4E7772"/>
<path d="M4.96459 32.4407L0 15.5914H6.70273L10.1778 29.1266H6.97541L12.8962 11.2969H18.9286L24.6259 29.1266H21.498L27.3815 12.258H33.6001L26.4133 32.4407H19.5616L14.7208 18.4767H16.8061L11.8163 32.4407H4.96459Z" fill="#1F221F"/>
<path d="M45.9067 32.4407V28.6797L45.4226 27.7488V20.8226C45.4226 19.7055 45.0751 18.849 44.38 18.2532C43.7097 17.6326 42.6298 17.3223 41.1403 17.3223C40.1721 17.3223 39.1916 17.4837 38.1986 17.8064C37.2056 18.1043 36.3615 18.5263 35.6664 19.0725L33.2832 14.2688C34.4252 13.5241 35.7905 12.9531 37.3793 12.5559C38.993 12.1339 40.5942 11.9229 42.183 11.9229C45.4599 11.9229 47.992 12.6801 49.7794 14.1944C51.5916 15.6839 52.4977 18.0298 52.4977 21.2322V32.4407H45.9067ZM39.9487 32.7757C38.3351 32.7757 36.9697 32.5028 35.8526 31.9566C34.7355 31.4105 33.879 30.6657 33.2832 29.7224C32.7123 28.779 32.4268 27.724 32.4268 26.5572C32.4268 25.3159 32.7371 24.2485 33.3577 23.3548C34.0031 22.4362 34.9837 21.7411 36.2995 21.2695C37.6152 20.773 39.3157 20.5247 41.401 20.5247H46.1674V24.2112H42.3692C41.2272 24.2112 40.4204 24.3974 39.9487 24.7698C39.5019 25.1422 39.2784 25.6387 39.2784 26.2593C39.2784 26.8799 39.5143 27.3764 39.986 27.7488C40.4576 28.1212 41.1031 28.3073 41.9223 28.3073C42.6919 28.3073 43.387 28.1212 44.0076 27.7488C44.653 27.3516 45.1247 26.7558 45.4226 25.9614L46.3908 28.568C46.0184 29.9582 45.2861 31.0133 44.1938 31.7332C43.1263 32.4283 41.7113 32.7757 39.9487 32.7757Z" fill="#1F221F"/>
<path d="M54.5137 32.4407V4.81055H61.5888V32.4407H54.5137Z" fill="#1F221F"/>
<path d="M69.6198 28.7171L69.8059 20.2642L78.0354 12.2581H86.4138L77.2907 21.6792L73.6786 24.5837L69.6198 28.7171ZM63.7363 32.4408V20.1882H70.8114V32.4408H63.7363ZM77.4456 31.3297L72.3753 24.6954L76.7693 19.2588L86.0102 31.3297H77.4456Z" fill="#1F221F"/>
<path d="M90.3803 32.4408L83.1934 12.2581H86.5448H89.8962L95.5935 29.1267H92.3911L98.3118 12.2581H104.344L110.042 29.1267H106.914L112.797 12.2581H119.016L111.829 32.4408H104.978L100.137 18.4768H102.222L97.2319 32.4408H90.3803Z" fill="#1F221F"/>
<path d="M131.323 32.4407V28.6797L130.839 27.7488V20.8226C130.839 19.7055 130.491 18.849 129.796 18.2532C129.126 17.6326 128.046 17.3223 126.557 17.3223C125.588 17.3223 124.608 17.4837 123.615 17.8064C122.622 18.1043 121.778 18.5263 121.083 19.0725L118.7 14.2688C119.841 13.5241 121.207 12.9531 122.796 12.5559C124.409 12.1339 126.01 11.9229 127.599 11.9229C130.876 11.9229 133.408 12.6801 135.196 14.1944C137.008 15.6839 137.914 18.0298 137.914 21.2322V32.4407H131.323ZM125.365 32.7757C123.751 32.7757 122.386 32.5028 121.269 31.9566C120.152 31.4105 119.295 30.6657 118.7 29.7224C118.129 28.779 117.843 27.724 117.843 26.5572C117.843 25.3159 118.153 24.2485 118.774 23.3548C119.419 22.4362 120.4 21.7411 121.716 21.2695C123.031 20.773 124.732 20.5247 126.817 20.5247H131.584V24.2112H127.785C126.643 24.2112 125.837 24.3974 125.365 24.7698C124.918 25.1422 124.695 25.6387 124.695 26.2593C124.695 26.8799 124.931 27.3764 125.402 27.7488C125.874 28.1212 126.519 28.3073 127.339 28.3073C128.108 28.3073 128.803 28.1212 129.424 27.7488C130.069 27.3516 130.541 26.7558 130.839 25.9614L131.807 28.568C131.435 29.9582 130.702 31.0133 129.61 31.7332C128.543 32.4283 127.128 32.7757 125.365 32.7757Z" fill="#1F221F"/>
<path d="M143.029 40C141.961 40 140.881 39.8262 139.789 39.4787C138.722 39.1559 137.853 38.7215 137.182 38.1754L139.64 33.2228C140.062 33.5952 140.546 33.8806 141.092 34.0792C141.663 34.3027 142.222 34.4144 142.768 34.4144C143.538 34.4144 144.146 34.2406 144.593 33.8931C145.04 33.5455 145.424 32.9994 145.747 32.2546L146.678 29.9087L147.237 29.2011L152.977 15.5915H159.717L152.115 33.26C151.42 34.9978 150.613 36.3507 149.694 37.3189C148.8 38.3119 147.795 39.007 146.678 39.4042C145.586 39.8014 144.369 40 143.029 40ZM145.784 33.2973L136.885 12.2581H144.146L150.7 28.5681L145.784 33.2973Z" fill="#1F221F"/>
<path d="M69.6403 28.7255L69.8265 20.2726L78.056 12.2666H86.4344L77.3112 21.6877L73.6992 24.5922L69.6403 28.7255ZM63.7568 32.4493V20.1967H70.8319V32.4493H63.7568ZM77.4662 31.3382L72.3959 24.7039L76.7899 19.2672L86.0308 31.3382H77.4662Z" fill="#4E7772"/>
</svg>
