<svg width="105" height="50" viewBox="0 0 105 50" fill="none" xmlns="http://www.w3.org/2000/svg">
<path d="M53.6058 17.6616L58.4187 9.27049L74.7677 8.22214L75.3395 7.19979L60.2295 6.15145L63.7817 0.0259922H91.8098C100.43 0.0259922 106.799 3.12337 104.316 12.1556C103.58 14.9194 100.075 21.829 89.7781 24.7141C91.9744 24.974 97.4024 27.3826 96.4494 33.625C94.7859 44.7063 80.4643 49.974 72.4804 49.974L39.3795 50L37.7334 43.5886L55.083 42.3757L55.6765 41.349L36.8496 40.2053L34.8266 32.6027L61.5897 31.0302L62.1832 30.0295L14.1153 27.0274L16.4286 23.0203L68.1874 19.663L68.7852 18.6623L53.6058 17.6616ZM75.2659 19.3294L80.0311 19.3034C83.2281 19.2818 86.5377 17.8305 87.755 14.8934C88.877 12.1556 87.3738 9.82066 85.3724 9.84232H80.7502L75.2659 19.3294ZM69.7642 28.8382L64.02 38.8234H69.5C72.0515 38.8234 76.6044 37.5585 78.008 33.9369C79.3163 30.5536 76.912 28.8382 75.2442 28.8382H69.7642ZM28.008 44.2558L24.6724 49.9524L0.889648 49.9957L3.20294 45.9972L28.008 44.2558ZM29.6758 0L48.8103 0.0259922L50.2658 5.43233L27.4102 4.00277L29.6758 0ZM51.3359 9.72535L53.4325 17.6616L20.7606 15.5172L23.0479 11.5318L51.3359 9.72535ZM34.701 32.6027L30.5552 39.7981L7.50895 38.4899L9.82224 34.4871L34.701 32.6027Z" fill="white"/>
</svg>
