<svg width="96" height="50" viewBox="0 0 96 50" fill="none" xmlns="http://www.w3.org/2000/svg">
<path fill-rule="evenodd" clip-rule="evenodd" d="M16.2349 30.6081C15.4739 30.6081 14.8781 31.1405 14.8781 31.9174C14.8781 32.6947 15.477 33.2241 16.2349 33.2241C16.9923 33.2241 17.5917 32.6912 17.5917 31.9174C17.5917 31.1405 16.9954 30.6081 16.2349 30.6081ZM16.2349 32.8497C15.6923 32.8497 15.2898 32.4533 15.2898 31.9174C15.2898 31.3819 15.6892 30.9825 16.2349 30.9825C16.774 30.9825 17.1795 31.388 17.1795 31.9174C17.1795 32.4436 16.7704 32.8497 16.2349 32.8497ZM29.4376 26.0287H22.8324L23.5832 14.548L19.2938 26.0287H13.1602L22.8923 0.0789795H29.4187L28.6653 11.7172L33.0361 0.0789795H39.1702L29.4376 26.0287ZM30.2344 26.0287L39.966 0.0789795H46.0997L36.3681 26.0287H30.2344Z" fill="white"/>
<path fill-rule="evenodd" clip-rule="evenodd" d="M12.4529 17.0842C3.88173 27.1497 -4.20354 40.5427 2.93814 46.7101C9.85837 52.6867 18.5083 49.1481 24.4061 46.7889C30.304 44.4296 95.4931 16.1206 95.4931 16.1206C96.1221 15.8061 96.0045 15.4128 95.2179 15.6092C94.9008 15.6885 24.2491 34.8356 24.2491 34.8356C15.2837 37.3524 5.0611 31.8672 12.4529 17.0842Z" fill="white"/>
<path fill-rule="evenodd" clip-rule="evenodd" d="M16.4663 32.0097C16.6565 32.0005 16.8054 31.9023 16.8054 31.6389C16.8054 31.2993 16.5834 31.2139 16.2126 31.2139H15.6797V32.6219H16.0351V32.0225H16.095L16.4187 32.6219H16.8273L16.4663 32.0097ZM16.2382 31.7816H16.0356V31.4548H16.2065C16.3113 31.4548 16.4315 31.4671 16.4315 31.6036C16.4315 31.7499 16.3619 31.7816 16.2382 31.7816ZM77.8927 0C77.1317 0 76.5359 0.532914 76.5359 1.30927C76.5359 2.08614 77.1353 2.61548 77.8927 2.61548C78.6501 2.61548 79.2495 2.08256 79.2495 1.30927C79.2501 0.532914 78.6542 0 77.8927 0ZM77.8927 2.24213C77.3501 2.24213 76.9476 1.84577 76.9476 1.30979C76.9476 0.774313 77.347 0.374881 77.8927 0.374881C78.4318 0.374881 78.8378 0.780451 78.8378 1.30979C78.8378 1.83605 78.4287 2.24213 77.8927 2.24213Z" fill="white"/>
<path fill-rule="evenodd" clip-rule="evenodd" d="M78.1238 1.40104C78.314 1.39183 78.4633 1.29364 78.4633 1.03025C78.4633 0.690656 78.2409 0.605246 77.8706 0.605246H77.3377V2.01272H77.6926V1.41383H77.753L78.0762 2.01272H78.4853L78.1238 1.40104ZM77.8951 1.17294H77.6926V0.846132H77.8639C77.9683 0.846132 78.089 0.858918 78.089 0.995471C78.089 1.14123 78.0189 1.17294 77.8951 1.17294ZM73.8507 4.40419L75.4991 0.0789795H56.7836L50.3574 7.86405L53.3243 0.0789795H47.1119L37.458 26.0287H43.5917L47.7133 15.1771L47.9956 26.0287L66.8159 25.9878L68.6075 20.9962H61.452L63.8031 14.7055H69.7004L71.515 9.86938H65.6176L67.6393 4.40419H73.8507ZM54.0807 24.2985L53.6874 10.7736L62.9612 0.591437L54.0807 24.2985Z" fill="white"/>
</svg>
