<svg width="102" height="50" viewBox="0 0 102 50" fill="none" xmlns="http://www.w3.org/2000/svg">
<path d="M54.9293 0.169569C54.601 0.220206 54.2854 1.42904 53.6509 2.05877C53.1869 2.51326 52.6077 2.48483 52.3 3.04671C52.1832 3.25662 52.2211 3.61493 52.0885 3.95897C51.8297 4.64705 50.9175 4.70856 50.9175 5.45826C50.9144 6.26789 51.6782 6.42252 52.3395 6.99697C52.8556 7.45939 52.9061 7.77816 53.531 8.00224C54.0645 8.18383 54.8583 7.59034 55.5732 7.80342C56.1604 7.97867 56.7221 8.10487 56.8548 8.70776C56.9715 9.26329 56.8468 10.1249 56.1351 10.0256C55.8952 9.99872 54.8551 9.64834 53.5768 9.78405C52.0348 9.9593 50.2751 10.4626 50.1032 12.1814C50.0084 13.1425 51.1968 14.2757 52.3442 14.0453C53.138 13.8889 52.7625 12.9532 53.1948 12.4986C53.7614 11.9164 56.9715 14.5314 59.9559 14.5314C61.2122 14.5314 62.1464 14.2142 63.0745 13.242C63.1612 13.1678 63.267 13.0084 63.4011 12.9989C63.5274 13.0084 63.7483 13.133 63.8209 13.1867C66.2246 15.1184 68.041 18.993 76.8743 19.0387C78.1164 19.045 79.5319 19.6385 80.6872 20.6927C81.7178 21.6459 82.3207 23.1278 82.9062 24.6318C83.79 26.8887 85.3746 29.084 87.7765 31.5271C87.9076 31.658 89.885 33.1953 90.0428 33.3105C90.0681 33.3262 90.2133 33.6734 90.1629 33.8675C90.1044 35.3321 89.8914 39.5916 93.0667 39.7842C93.8432 39.8236 93.6395 39.2776 93.6395 38.902C93.6381 38.1602 93.5022 37.4232 93.8937 36.6641C94.4286 35.6194 92.759 35.138 92.8079 32.8796C92.8426 31.1956 91.4285 31.4828 90.7104 30.1998C90.2969 29.4564 89.9292 29.0619 89.956 28.1527C90.117 23.0364 88.8671 19.6747 88.2437 18.8493C87.7577 18.2259 87.3552 17.9782 87.8002 17.6893C90.4501 15.9391 91.0514 14.3104 91.0514 14.3104C92.4606 10.9978 93.728 7.97222 95.475 6.64036C95.827 6.36565 96.7297 5.69185 97.2837 5.42665C98.9139 4.65803 99.7725 4.19256 100.246 3.73161C100.996 3.00094 101.587 1.47798 100.869 0.554728C99.9761 -0.584777 98.431 0.319554 97.7493 0.723518C92.8774 3.61493 92.1593 8.71557 90.472 11.6448C89.1259 13.9852 86.937 15.7039 84.98 15.8444C83.5122 15.9533 81.9309 15.6566 80.3558 14.9653C76.5255 13.2862 74.4296 11.1177 73.9357 10.7343C72.9066 9.94038 64.9177 2.0982 58.4455 1.77784C58.4455 1.77784 57.6423 0.169682 57.4402 0.142834C56.9667 0.0827946 56.4823 1.10392 56.1351 1.22241C55.8084 1.33116 55.2592 0.115873 54.9293 0.169569ZM26.4364 46.9746C25.8271 46.9603 25.3095 46.46 25.3095 45.8414L25.3111 25.653H18.6574V47.9072C18.6574 48.9978 19.5411 49.888 20.6253 49.888H32.2552C33.3473 49.888 34.2201 48.9978 34.2201 47.9072V25.653H27.5727L27.5664 45.8414C27.5664 46.46 27.0487 46.9603 26.4364 46.9746ZM48.7143 25.653H38.6438C37.4523 25.653 36.4817 26.622 36.4817 27.8262V49.8879H43.1415V29.6507C43.1463 29.0305 43.6481 28.5396 44.2669 28.5396C44.8887 28.5396 45.3873 29.0194 45.4015 29.6333V49.888H52.0347V29.6331C52.0427 29.0192 52.5413 28.5395 53.1615 28.5395C53.7771 28.5395 54.2853 29.0303 54.2901 29.6506V49.888H60.95V27.8262C60.95 26.622 59.9779 25.653 58.7863 25.653H48.7143ZM9.75308 29.6932C9.75784 29.0192 9.20864 28.5395 8.62626 28.5395H7.49627V40.7974H8.62626C9.2134 40.7974 9.75795 40.3302 9.75308 39.6596V29.6932ZM14.2179 43.7976H7.49627V49.888H0.845703V25.653H14.2606C15.4615 25.653 16.3989 26.6283 16.3989 27.8357V41.615C16.3989 42.8239 15.4252 43.7976 14.2179 43.7976ZM83.7726 44.4683C82.4359 44.4683 81.3137 45.6236 81.3137 47.0235C81.3137 48.4281 82.4359 49.5738 83.8152 49.5738C85.1836 49.5738 86.2915 48.4281 86.2915 47.0235C86.2915 45.6204 85.1836 44.4683 83.8151 44.4683H83.7726ZM86.7681 47.0156C86.7681 48.6616 85.4487 50 83.8152 50C82.1644 50 80.8388 48.6712 80.8388 47.0156C80.8388 45.3916 82.1644 44.0343 83.7663 44.0343C85.4487 44.0343 86.7681 45.3507 86.7681 47.0156Z" fill="white"/>
<path d="M83.5078 46.8262C83.9702 46.8262 84.2133 46.662 84.2133 46.3339C84.2133 46.0418 83.9781 45.8919 83.5283 45.8919H83.3958V46.8262H83.5078ZM85.2108 48.7421H84.4169L83.3958 47.3833V48.7421H82.7471V45.3064H83.4289C84.3554 45.3064 84.8477 45.6568 84.8477 46.3259C84.8477 46.7725 84.5573 47.1687 84.1517 47.287L84.1043 47.3045L85.2108 48.7421ZM72.1164 40.8022V29.6428C72.1005 29.0256 71.6034 28.5522 70.9832 28.5522C70.3692 28.5522 69.861 29.0445 69.8564 29.6601V40.8022H72.1164ZM72.1164 49.888V43.8039H69.8564V49.888H63.209V27.8262C63.209 26.622 64.1795 25.653 65.3711 25.653H76.6015C77.7963 25.653 78.7669 26.622 78.7669 27.8262V49.8879L72.1164 49.888Z" fill="white"/>
</svg>
