<svg width="109" height="50" viewBox="0 0 109 50" fill="none" xmlns="http://www.w3.org/2000/svg">
<path fill-rule="evenodd" clip-rule="evenodd" d="M87.4162 37.7747C85.8483 36.6774 83.8116 36.0496 81.3021 36.0496C78.9515 36.0496 76.9142 36.6774 75.1915 37.7747C73.4664 39.1836 72.5258 40.9098 72.5258 43.1031C72.5258 45.2976 73.4664 46.8649 75.1915 48.2749C76.9142 49.3721 78.9521 50 81.3021 50C83.8116 50 85.8483 49.3721 87.4162 48.2749C89.2967 46.8649 90.0806 45.2976 90.0806 43.1031C90.0801 40.9098 89.2967 39.1836 87.4162 37.7747ZM81.3015 39.968C82.3999 39.968 83.1832 40.282 83.9672 40.7514C84.595 41.3792 85.0644 42.0047 85.0644 42.7892C85.2199 44.9837 83.9672 46.081 81.3015 46.081C80.2043 46.081 79.2648 45.7671 78.4815 45.1392C77.8537 44.5126 77.5409 43.7292 77.5409 42.7886C77.6964 42.0042 78.0115 41.3786 78.637 40.7508C79.4209 40.282 80.2043 39.968 81.3015 39.968ZM107.634 36.5191H101.991L96.5063 41.6931V32.289H91.3334V49.686H96.5063V42.6325L101.678 49.686H108.262L101.522 42.1625L107.634 36.5191ZM44.783 36.3635C42.1179 36.3635 40.0812 36.9914 38.5134 38.0863C36.9462 39.3419 36.1622 40.9098 36.0056 43.1031C36.0056 47.3343 38.9834 49.53 45.0969 49.686H52.7771V46.0815H45.4097C43.3724 45.9237 41.9618 45.4537 41.4912 44.5137C40.8646 43.5731 40.8646 42.6331 41.3346 41.6937C41.9618 40.5964 43.2152 39.9686 44.783 39.9686H47.9175L44.4691 44.5137H49.3281L52.7765 40.1259V36.3641L44.783 36.3635ZM59.6727 32.289H54.3437V49.5299H64.0606C66.2562 49.5299 67.979 48.9021 69.2335 47.6482C70.6447 46.551 71.2713 44.9837 71.428 43.1031C71.428 39.3414 69.8613 37.303 66.7262 36.6774L62.3384 36.5196L59.9867 39.9686H62.0245C65.1596 39.9686 66.5696 40.9103 66.5696 43.1037C66.4129 44.9843 65.0029 46.0815 62.3384 46.0815H59.6727V32.289ZM0.896484 32.289V49.5299H6.22549V36.2063H11.2412C12.3378 36.5191 13.1217 37.1469 12.9656 38.3996C12.9656 39.183 12.6517 39.8108 12.0251 39.9675L7.0094 40.4369L12.4951 49.6849H18.9213L13.5923 42.4759C16.8841 42.3181 18.4513 40.5953 18.1374 37.4602C18.1374 35.7351 17.3535 34.4812 15.9435 33.5418C14.689 32.7585 13.1217 32.2885 11.2412 32.2885L0.896484 32.289Z" fill="white"/>
<path fill-rule="evenodd" clip-rule="evenodd" d="M27.2281 36.3636C24.5636 36.3636 22.5264 36.9914 20.9586 38.0864C19.3913 39.1836 18.6074 40.9098 18.6074 42.9465C18.4513 47.3343 21.4291 49.5306 27.3848 49.5306H35.2216V46.0816H27.856C25.8176 45.9238 24.4076 45.4538 23.9375 44.5138C23.3103 43.5732 23.3103 42.6332 23.7809 41.6937C24.4075 40.5965 25.6609 39.9687 27.2287 39.9687H30.3632L26.9154 44.5138H31.7744L35.2222 39.9687V36.3642L27.2281 36.3636ZM55.1276 4.70233L63.2772 9.718L76.2858 4.85957C80.676 3.44899 86.3183 1.88116 93.0573 0C76.4442 1.41116 63.9051 2.82117 55.1276 4.70233ZM48.8586 10.0319L41.6485 8.15074C37.5734 9.24857 33.655 10.9719 30.0505 13.167C26.4448 15.3603 23.6242 17.8693 21.743 20.5338H33.9689C34.9095 19.1227 36.4767 17.5548 38.514 15.9876C41.4912 13.4803 44.9402 11.5992 48.8586 10.0319ZM57.4794 13.0092L51.3665 10.9713C49.9553 11.5992 48.232 12.3825 46.1936 13.7925C43.3724 15.6737 40.8646 18.0248 38.6706 20.5338H50.112C51.6792 18.0248 54.1871 15.5176 57.4794 13.0092ZM43.5296 0H19.0785L43.5291 6.5835C54.3437 9.87409 64.3745 13.637 73.6236 17.5548L43.5296 0Z" fill="white"/>
</svg>
