<svg width="210" height="211" viewBox="0 0 210 211" fill="none" xmlns="http://www.w3.org/2000/svg">
<path d="M105.079 210.336C162.905 210.336 209.782 163.459 209.782 105.633C209.782 47.8073 162.905 0.930176 105.079 0.930176C47.2531 0.930176 0.375977 47.8073 0.375977 105.633C0.375977 163.459 47.2531 210.336 105.079 210.336Z" fill="white"/>
<mask id="mask0_2152_5619" style="mask-type:luminance" maskUnits="userSpaceOnUse" x="0" y="0" width="210" height="211">
<path d="M105.079 210.336C162.905 210.336 209.782 163.459 209.782 105.633C209.782 47.8073 162.905 0.930176 105.079 0.930176C47.2531 0.930176 0.375977 47.8073 0.375977 105.633C0.375977 163.459 47.2531 210.336 105.079 210.336Z" fill="white"/>
</mask>
<g mask="url(#mask0_2152_5619)">
<path d="M81.2725 201.786C62.2715 201.616 43.3625 195.586 27.7715 184.723C12.1805 173.86 0.762485 157.76 -5.97852 139.994C-2.61452 133.939 1.08148 127.553 7.22748 124.36C10.0675 122.885 13.2895 122.183 15.9865 120.461C20.3795 117.657 22.7435 112.577 24.2685 107.593C25.7935 102.61 26.7455 97.3701 29.3295 92.8441C31.8235 88.4761 35.7225 85.0281 40.0465 82.4581C44.2255 79.9741 48.9525 78.1551 52.2215 74.5571C55.4775 70.9721 56.8405 66.1041 58.1015 61.4281C59.7175 62.7031 61.9525 61.7801 64.0075 61.8831C75.2285 62.4461 86.5265 61.4721 97.4855 58.9961C102.792 88.8671 100.672 119.59 97.5815 149.771C96.4995 160.342 95.4145 170.929 93.3835 181.359C91.8685 189.14 87.4595 196.832 81.2725 201.786Z" fill="#000035"/>
<path d="M127.346 201.786C146.347 201.616 165.256 195.586 180.847 184.723C196.438 173.86 207.856 157.76 214.597 139.994C211.233 133.939 207.537 127.553 201.391 124.36C198.551 122.885 195.329 122.183 192.632 120.461C188.239 117.657 185.875 112.577 184.35 107.593C182.825 102.61 181.874 97.3701 179.29 92.8441C176.796 88.4761 172.898 85.0281 168.574 82.4581C164.395 79.9741 159.667 78.1551 156.398 74.5571C153.142 70.9721 151.779 66.1041 150.518 61.4281C148.902 62.7031 146.667 61.7801 144.611 61.8831C133.39 62.4461 122.093 61.4721 111.134 58.9961C105.828 88.8671 107.947 119.59 111.037 149.771C112.119 160.342 113.204 170.929 115.235 181.359C116.75 189.14 121.159 196.832 127.346 201.786Z" fill="#000035"/>
<path d="M134.5 153.545C133.809 153.268 133.127 152.989 132.465 152.709C132.294 152.637 132.138 152.563 131.97 152.49C130.88 152.02 129.848 151.542 128.86 151.059C128.598 150.931 128.323 150.805 128.071 150.676C127.534 150.402 127.021 150.124 126.525 149.845C123.996 148.418 122.04 146.916 120.934 145.3C120.637 144.867 120.389 144.427 120.222 143.976C116.785 134.675 118.161 124.161 118.161 124.161L106.777 124.945L94.5817 124.161C94.5817 124.161 96.7677 134.675 93.3307 143.976C93.2347 144.235 93.1067 144.49 92.9677 144.743C91.8707 146.734 89.4557 148.548 86.2597 150.262C86.1057 150.344 85.9617 150.428 85.8047 150.51C85.4447 150.697 85.0887 150.885 84.7117 151.07C83.6477 151.592 82.5067 152.103 81.3207 152.609C80.6787 152.883 80.0277 153.155 79.3587 153.425C78.8637 153.625 78.3547 153.823 77.8467 154.021L106.545 197.068L134.5 153.545Z" fill="#EBA08C"/>
<path d="M167.13 167.228C160.24 162.061 145.65 158.015 134.5 153.545L106.541 197.067L77.8429 154.02C66.8659 158.304 53.0639 162.244 46.4189 167.228C35.0959 175.72 29.8389 211.711 29.8389 211.711H79.9209H87.4539H106.47H107.077H135.187H146.77H183.709C183.709 211.711 178.453 175.72 167.13 167.228Z" fill="#2847FB"/>
<path d="M104.322 121.255C130.953 121.255 152.542 100.415 152.542 74.7062C152.542 48.9979 130.953 28.1572 104.322 28.1572C77.6904 28.1572 56.1016 48.9979 56.1016 74.7062C56.1016 100.415 77.6904 121.255 104.322 121.255Z" fill="#000035"/>
<path d="M146.087 84.2881C146.087 107.06 131.605 134.237 104.855 134.237C78.105 134.237 63.623 107.06 63.623 84.2881C63.623 61.5161 82.083 43.0562 104.855 43.0562C127.627 43.0562 146.087 61.5171 146.087 84.2881Z" fill="#EBA08C"/>
<path d="M68.216 85.6772C72.501 78.5292 75.924 61.2462 73.992 57.0972C73.397 55.8192 69.526 57.4022 68.43 56.7382C66.493 55.5632 64.021 56.3052 62.366 57.9812C60.711 59.6572 59.744 62.0952 59.064 64.5472C57.072 71.7352 57.206 79.4852 58.336 86.8572C58.875 90.3752 58.763 93.0272 62.197 91.4572C64.63 90.3422 66.716 88.1782 68.216 85.6772Z" fill="#000035"/>
<path d="M141.171 86.2361C139.081 82.7401 138.003 78.5271 137.368 74.3071C136.666 69.6411 136.521 64.5761 138.452 60.4271C139.047 59.1491 139.86 57.9611 140.956 57.2961C142.893 56.1211 145.365 56.8631 147.02 58.5381C148.675 60.2141 149.642 62.6521 150.322 65.1041C152.314 72.2921 152.18 80.0421 151.05 87.4141C150.511 90.9321 150.623 93.5841 147.189 92.0141C144.756 90.9011 142.667 88.7391 141.171 86.2361Z" fill="#000035"/>
<path d="M157.041 91.2223C156.487 94.1633 154.864 96.8843 152.801 98.9223C151.399 100.306 149.76 101.419 148.007 101.891C146.255 102.363 144.386 102.149 142.995 101.08C141.722 100.102 140.927 98.4853 140.539 96.7553C139.645 92.7613 140.855 88.1233 143.308 84.6503C145.012 82.2373 147.423 80.2673 150.018 79.9413C155.248 79.2823 158.02 86.0193 157.041 91.2223Z" fill="#EBA08C"/>
<path d="M142.316 97.3483C143.57 97.2763 144.814 96.8293 145.871 96.0703C146.191 95.8403 146.526 95.5143 146.511 95.1093C146.502 94.8833 146.383 94.6843 146.262 94.5013C145.549 93.4203 144.66 92.4753 143.645 91.7183C144.386 90.0493 145.139 88.3593 146.244 86.9323C147.35 85.5053 148.867 84.3463 150.564 84.1103C152.262 83.8743 154.112 84.7413 154.76 86.4083C154.76 86.4083 157.038 91.2213 151.672 96.4313C146.015 101.926 142.316 97.3483 142.316 97.3483Z" fill="#EBA08C"/>
<path d="M154.762 86.4093C154.118 85.2203 152.882 84.5773 151.68 84.5023C150.475 84.4153 149.316 84.9253 148.361 85.6723C147.398 86.4293 146.627 87.4173 145.979 88.5053C145.337 89.5993 144.78 90.7733 144.229 91.9773L144.027 91.2073C144.687 91.7303 145.288 92.3233 145.813 92.9723C146.07 93.3013 146.309 93.6433 146.53 93.9953C146.636 94.1743 146.749 94.3323 146.861 94.5913C146.977 94.8373 147.013 95.2213 146.89 95.5063C146.645 96.0773 146.203 96.3033 145.861 96.5123C145.5 96.7243 145.111 96.8823 144.721 97.0183C143.937 97.2793 143.117 97.4143 142.315 97.3483C143.1 97.1893 143.845 96.9333 144.516 96.5533C144.852 96.3653 145.162 96.1403 145.464 95.9143C145.77 95.6883 146.024 95.4233 146.053 95.2293C146.063 95.1363 146.052 95.0983 145.995 94.9863C145.94 94.8843 145.813 94.7223 145.699 94.5713C145.466 94.2713 145.219 93.9833 144.958 93.7103C144.445 93.1573 143.878 92.6573 143.265 92.2303L142.855 91.9443L143.064 91.4603C143.588 90.2453 144.11 88.9913 144.841 87.8163C145.556 86.6403 146.48 85.5203 147.67 84.7193C148.835 83.9213 150.347 83.4163 151.793 83.7403C153.199 84.0323 154.452 85.0853 154.762 86.4093Z" fill="#000035"/>
<path d="M51.5345 91.2223C52.0885 94.1633 53.7114 96.8843 55.7744 98.9223C57.1764 100.306 58.8155 101.419 60.5685 101.891C62.3205 102.363 64.1895 102.149 65.5815 101.08C66.8545 100.102 67.6494 98.4853 68.0374 96.7553C68.9314 92.7613 67.7224 88.1233 65.2684 84.6503C63.5644 82.2373 61.1534 80.2673 58.5584 79.9413C53.3274 79.2823 50.5555 86.0193 51.5345 91.2223Z" fill="#EBA08C"/>
<path d="M66.2573 97.3483C65.0033 97.2763 63.7594 96.8293 62.7024 96.0703C62.3824 95.8403 62.0473 95.5143 62.0623 95.1093C62.0713 94.8833 62.1904 94.6843 62.3104 94.5013C63.0234 93.4203 63.9124 92.4753 64.9274 91.7183C64.1864 90.0493 63.4334 88.3593 62.3284 86.9323C61.2224 85.5053 59.7054 84.3463 58.0084 84.1103C56.3104 83.8743 54.4603 84.7413 53.8123 86.4083C53.8123 86.4083 51.5343 91.2213 56.9003 96.4313C62.5593 101.926 66.2573 97.3483 66.2573 97.3483Z" fill="#EBA08C"/>
<path d="M53.8125 86.4094C54.1215 85.0854 55.3755 84.0314 56.7815 83.7404C58.2265 83.4164 59.7395 83.9204 60.9045 84.7194C62.0955 85.5194 63.0185 86.6404 63.7335 87.8164C64.4645 88.9914 64.9865 90.2454 65.5105 91.4604L65.7195 91.9444L65.3095 92.2304C64.6965 92.6574 64.1295 93.1574 63.6165 93.7104C63.3555 93.9834 63.1085 94.2714 62.8755 94.5714C62.7615 94.7224 62.6345 94.8844 62.5795 94.9864C62.5225 95.0974 62.5115 95.1364 62.5215 95.2294C62.5505 95.4244 62.8045 95.6894 63.1105 95.9144C63.4125 96.1404 63.7225 96.3654 64.0585 96.5534C64.7295 96.9334 65.4735 97.1884 66.2595 97.3484C65.4575 97.4144 64.6375 97.2794 63.8535 97.0184C63.4635 96.8834 63.0745 96.7244 62.7135 96.5124C62.3715 96.3034 61.9295 96.0774 61.6845 95.5064C61.5615 95.2214 61.5985 94.8374 61.7135 94.5914C61.8255 94.3324 61.9395 94.1744 62.0455 93.9954C62.2665 93.6434 62.5055 93.3014 62.7625 92.9724C63.2885 92.3234 63.8885 91.7314 64.5485 91.2074L64.3465 91.9774C63.7955 90.7734 63.2385 89.5984 62.5965 88.5054C61.9475 87.4174 61.1775 86.4304 60.2145 85.6724C59.2595 84.9254 58.1005 84.4154 56.8955 84.5024C55.6925 84.5774 54.4565 85.2214 53.8125 86.4094Z" fill="#000035"/>
<path d="M94.0487 81.9362C94.0487 83.9602 92.4077 85.6002 90.3847 85.6002C88.3607 85.6002 86.7207 83.9592 86.7207 81.9362C86.7207 79.9122 88.3617 78.2722 90.3847 78.2722C92.4077 78.2722 94.0487 79.9122 94.0487 81.9362Z" fill="#000035"/>
<path d="M77.9404 79.6722C78.6264 77.7842 79.7264 76.0372 81.0324 74.4372C82.3654 72.8572 83.9684 71.4782 85.7614 70.3672C86.2144 70.0992 86.6684 69.8272 87.1194 69.5382L88.5324 68.7672C89.0234 68.5522 89.5264 68.3572 90.0374 68.1902C90.5594 68.0602 91.0914 67.9662 91.6244 67.8982C93.7664 67.7232 96.0114 68.0512 97.8734 69.3392L97.8304 69.7242C95.7964 70.5792 94.0794 71.1082 92.3794 71.6982C91.9594 71.8562 91.5374 71.9862 91.1064 72.0822C90.6834 72.2082 90.2504 72.3052 89.8074 72.3842L88.4844 72.6862C88.0514 72.8172 87.6204 72.9662 87.1884 73.1182C85.5024 73.8112 83.8744 74.7192 82.3674 75.8402C80.8334 76.9402 79.4854 78.3122 78.2794 79.8592L77.9404 79.6722Z" fill="#000035"/>
<path d="M118.251 81.9362C118.251 83.9602 119.892 85.6002 121.915 85.6002C123.939 85.6002 125.579 83.9592 125.579 81.9362C125.579 79.9122 123.938 78.2722 121.915 78.2722C119.892 78.2722 118.251 79.9122 118.251 81.9362Z" fill="#000035"/>
<path d="M134.021 79.8592C132.815 78.3132 131.467 76.9402 129.933 75.8402C128.426 74.7192 126.798 73.8112 125.112 73.1182C124.68 72.9662 124.249 72.8172 123.816 72.6862L122.493 72.3842C122.05 72.3052 121.617 72.2092 121.194 72.0822C120.763 71.9852 120.342 71.8552 119.921 71.6982C118.22 71.1082 116.504 70.5792 114.47 69.7242L114.427 69.3392C116.289 68.0512 118.533 67.7232 120.676 67.8982C121.209 67.9662 121.741 68.0602 122.263 68.1902C122.774 68.3572 123.277 68.5522 123.768 68.7672L125.18 69.5382C125.631 69.8272 126.086 70.0992 126.538 70.3672C128.331 71.4792 129.934 72.8572 131.267 74.4372C132.573 76.0372 133.672 77.7852 134.359 79.6722L134.021 79.8592Z" fill="#000035"/>
<path d="M93.5908 107.28C95.5528 109.096 97.6948 110.669 100.007 111.836C101.165 112.411 102.357 112.905 103.597 113.179C104.208 113.356 104.836 113.42 105.457 113.522C106.083 113.539 106.716 113.621 107.324 113.531C108.556 113.489 109.772 113.122 110.927 112.617C112.105 112.148 113.188 111.437 114.249 110.697C116.356 109.176 118.246 107.31 120.004 105.295C118.739 107.66 117.034 109.815 114.95 111.589C112.888 113.348 110.313 114.793 107.423 114.98C105.995 115.084 104.587 114.893 103.244 114.505C101.9 114.122 100.622 113.555 99.4598 112.824C97.1168 111.397 95.1038 109.498 93.5908 107.28Z" fill="#000035"/>
<path d="M85.0947 128.427C88.5437 130.487 92.2157 132.049 95.9807 133.165C99.7487 134.237 103.662 134.844 107.519 134.697C111.355 134.537 115.128 133.369 118.652 131.668C122.171 129.936 125.497 127.726 128.565 125.134C126.061 128.295 122.89 130.938 119.358 132.998C115.825 135.054 111.792 136.418 107.607 136.631C103.45 136.757 99.3437 136.017 95.5067 134.602C91.6857 133.172 88.0767 131.147 85.0947 128.427Z" fill="#000035"/>
<path opacity="0.2" d="M136.58 97.6531C136.58 101.301 132.681 104.259 127.872 104.259C123.063 104.259 119.164 101.301 119.164 97.6531C119.164 94.0041 123.063 91.0471 127.872 91.0471C132.681 91.0471 136.58 94.0041 136.58 97.6531Z" fill="#EBA08C"/>
<path opacity="0.2" d="M94.3398 97.6531C94.3398 101.301 90.4408 104.259 85.6318 104.259C80.8228 104.259 76.9238 101.301 76.9238 97.6531C76.9238 94.0041 80.8228 91.0471 85.6318 91.0471C90.4418 91.0471 94.3398 94.0041 94.3398 97.6531Z" fill="#EBA08C"/>
<path d="M63.7324 72.8042C67.5284 76.3702 73.8134 75.9742 77.2244 71.9542C79.3534 69.4452 80.2904 66.0012 81.7754 62.9712C83.2604 59.9412 85.7994 57.0332 88.8944 57.1902C91.4004 57.3172 93.5434 59.4352 96.0444 59.6472C99.3384 59.9272 102.2 56.6882 103.066 53.1362C103.932 49.5842 106.53 44.0142 105.889 40.4032C102.727 38.5182 95.0574 40.0032 91.5714 40.9392C78.3414 44.4922 67.8054 58.3352 63.7324 72.8042Z" fill="#000035"/>
<path d="M146.614 72.8042C142.818 76.3702 136.533 75.9742 133.122 71.9542C130.993 69.4452 130.056 66.0012 128.571 62.9712C127.086 59.9412 124.547 57.0332 121.452 57.1902C118.946 57.3172 116.803 59.4352 114.302 59.6472C111.008 59.9272 108.146 56.6882 107.28 53.1362C106.414 49.5842 105.248 44.0142 105.889 40.4032C109.051 38.5182 115.29 40.0032 118.776 40.9392C132.005 44.4922 142.541 58.3352 146.614 72.8042Z" fill="#000035"/>
<path d="M105.539 79.5771C107.116 80.7981 108.47 82.3152 109.606 83.9832C110.738 85.6562 111.634 87.5182 112.187 89.5002C112.449 90.5072 112.636 91.4972 112.769 92.4882C112.918 93.4802 113.035 94.4802 113.107 95.4842C113.23 97.5052 113.272 99.4922 112.932 101.578L112.841 102.137L112.286 102.121C110.503 102.071 108.72 102.002 106.937 101.894C105.154 101.792 103.371 101.664 101.588 101.465C103.371 101.266 105.154 101.138 106.937 101.036C108.72 100.928 110.503 100.86 112.286 100.809L111.64 101.352C111.824 99.5101 111.765 97.5162 111.619 95.5922C111.468 93.6702 111.228 91.6761 110.862 89.8301C110.426 87.9781 109.726 86.1731 108.817 84.4561C107.894 82.7501 106.815 81.1011 105.539 79.5771Z" fill="#000035"/>
<path d="M73.2852 155.528L106.181 204.63L139.077 155.528" stroke="#000035" stroke-miterlimit="10"/>
<g opacity="0.38">
<path d="M98.6267 48.3774C94.5437 47.0894 90.1317 47.2754 86.1767 48.6344C82.2277 49.9914 78.6217 52.4804 76.2677 55.9184C75.0697 57.6094 74.2437 59.5514 73.3977 61.5164C72.5397 63.4644 71.6337 65.4994 70.1447 67.1404C68.6937 68.7834 66.8917 70.1004 64.8997 70.9604C62.8997 71.7934 60.7327 72.2314 58.5947 72.1004C62.8617 71.9254 66.9437 69.8784 69.5567 66.6454C72.2237 63.4214 72.9297 59.0034 75.4487 55.3474C78.0017 51.7664 81.7867 49.1584 85.9427 47.9064C88.0237 47.2854 90.1947 46.9764 92.3557 47.0314C94.5107 47.1164 96.6597 47.5304 98.6267 48.3774Z" fill="white"/>
<path d="M99.1064 37.2993C97.4354 36.1843 95.4264 35.7884 93.4744 35.8644C91.5144 35.9134 89.5784 36.3583 87.7254 37.0013C84.0184 38.2753 80.5884 40.3703 77.8654 43.1753C75.0614 45.9113 73.1594 49.4453 70.8784 52.7343C69.7334 54.3793 68.4884 55.9783 67.0384 57.3823C65.5724 58.7573 63.9044 59.9653 62.0244 60.6563C63.8094 59.7573 65.3674 58.5003 66.6894 57.0383C68.0364 55.5973 69.1844 53.9843 70.2374 52.3083C72.3594 48.9793 74.2824 45.3963 77.1554 42.4723C80.0434 39.6153 83.6074 37.4303 87.4904 36.2723C89.4264 35.7013 91.4424 35.3254 93.4754 35.3774C95.4894 35.4584 97.5654 35.9943 99.1064 37.2993Z" fill="white"/>
<path d="M109.93 52.0663C111.159 50.4673 112.902 49.2823 114.802 48.5373C116.722 47.8253 118.814 47.5823 120.869 47.7993C125.021 48.2783 128.701 50.8383 131.123 54.1473C132.347 55.8153 133.163 57.7583 133.822 59.6493C134.493 61.5423 135.162 63.4043 136.277 64.9973C138.504 68.1943 142.251 70.3363 146.255 70.6433C144.241 70.7083 142.215 70.2093 140.373 69.3333C138.539 68.4303 136.914 67.0893 135.655 65.4503C134.355 63.8083 133.677 61.8213 132.968 59.9633C132.28 58.0833 131.49 56.2973 130.313 54.7313C128.078 51.5493 124.628 49.1613 120.767 48.5583C116.932 47.9703 112.724 49.1443 109.93 52.0663Z" fill="white"/>
<path d="M110.146 39.3124C111.756 38.1934 113.606 37.4224 115.527 36.9374C117.463 36.5074 119.476 36.4004 121.464 36.6074C123.453 36.8234 125.395 37.4374 127.191 38.3384C128.976 39.2724 130.582 40.5144 131.973 41.9494C134.719 44.8704 136.681 48.3634 138.362 51.8974C139.194 53.6684 140.004 55.4384 141.034 57.0764C142.032 58.7274 143.311 60.2334 144.966 61.2944C143.192 60.4294 141.781 58.9414 140.626 57.3474C139.487 55.7264 138.586 53.9654 137.673 52.2404C135.864 48.8024 133.94 45.3854 131.254 42.6414C129.946 41.2494 128.435 40.0494 126.768 39.1424C125.087 38.2514 123.246 37.6894 121.362 37.3654C117.579 36.7884 113.584 37.4294 110.146 39.3124Z" fill="white"/>
<path d="M164.376 96.7124C166.991 98.4164 169.233 100.694 171 103.296C172.765 105.915 173.869 108.929 174.643 111.965C175.424 115.009 175.851 118.11 176.493 121.139C177.122 124.164 177.942 127.166 179.461 129.799C179.628 130.141 179.846 130.45 180.055 130.765C180.272 131.073 180.454 131.409 180.7 131.696C181.183 132.276 181.647 132.873 182.195 133.395C183.289 134.441 184.525 135.348 185.829 136.166C188.424 137.819 191.284 139.163 193.787 141.121C196.283 143.059 198.443 145.41 200.168 148.037C201.863 150.68 203.158 153.582 203.867 156.621C202.94 153.645 201.567 150.823 199.762 148.312C197.986 145.785 195.808 143.547 193.325 141.736C190.836 139.937 188.031 138.588 185.346 136.937C184.004 136.113 182.704 135.182 181.534 134.085C180.378 132.969 179.392 131.681 178.593 130.295C177.015 127.492 176.211 124.388 175.603 121.322C174.998 118.246 174.552 115.167 173.898 112.144C173.223 109.132 172.234 106.182 170.589 103.56C168.991 100.916 166.858 98.5984 164.376 96.7124Z" fill="white"/>
<path d="M146.892 110.502C150.005 111.093 152.587 113.332 154.349 115.92C156.114 118.566 157.124 121.598 158.093 124.557C159.981 130.492 162.203 136.316 164.894 141.918C165.553 143.308 166.287 144.639 167.362 145.657C168.431 146.692 169.76 147.47 171.113 148.23C173.859 149.731 176.526 151.509 178.815 153.676C181.131 155.814 183.174 158.244 184.878 160.882C186.564 163.532 187.922 166.386 188.859 169.367C187.709 166.464 186.274 163.683 184.471 161.155C182.708 158.606 180.633 156.274 178.301 154.248C175.969 152.21 173.422 150.478 170.671 149.025C169.303 148.272 167.896 147.478 166.702 146.347C165.488 145.216 164.676 143.763 163.994 142.349C161.354 136.661 159.102 130.794 157.362 124.783C156.484 121.8 155.571 118.808 153.94 116.184C152.35 113.576 149.939 111.315 146.892 110.502Z" fill="white"/>
<path d="M135.456 125.088C135.349 126.555 135.627 128 136.176 129.331C136.697 130.673 137.408 131.934 138.229 133.129C139.82 135.547 141.713 137.758 143.648 139.94C145.572 142.132 147.572 144.292 149.35 146.648C151.134 148.99 152.706 151.545 153.684 154.32C152.973 153.033 152.284 151.751 151.41 150.582C150.599 149.376 149.687 148.24 148.749 147.129C146.856 144.919 144.854 142.796 142.898 140.602C140.971 138.39 139.056 136.113 137.579 133.533C136.821 132.264 136.158 130.916 135.716 129.49C135.304 128.062 135.123 126.527 135.456 125.088Z" fill="white"/>
<path d="M45.9414 95.3213C44.6904 95.7223 43.4834 96.2333 42.3434 96.8633C41.2184 97.5213 40.1524 98.2713 39.1814 99.1303C37.2334 100.841 35.6134 102.908 34.4104 105.191C33.2104 107.478 32.3814 109.931 31.9824 112.492C31.5544 115.049 31.4074 117.668 31.0524 120.294C30.6774 122.906 30.0504 125.572 28.7694 127.951C27.4974 130.317 25.7934 132.444 23.7654 134.166C21.7544 135.907 19.5484 137.386 17.2584 138.687C14.9504 139.96 12.5904 141.116 10.1914 142.184C12.4894 140.913 14.8014 139.671 17.0074 138.266C19.2284 136.891 21.3524 135.36 23.2494 133.596C25.1414 131.833 26.7864 129.811 27.9604 127.534C29.1514 125.261 29.7174 122.726 30.0624 120.156C30.4404 117.586 30.6184 114.956 31.0864 112.339C31.5374 109.724 32.3904 107.125 33.7394 104.823C35.0674 102.508 36.8044 100.434 38.8684 98.7593C39.9124 97.9353 41.0434 97.2333 42.2204 96.6323C43.4084 96.0483 44.6624 95.6183 45.9414 95.3213Z" fill="white"/>
<path d="M58.3867 107.655C52.7837 110.257 48.2427 114.929 45.8577 120.524C44.6617 123.319 44.0607 126.333 43.7237 129.374C43.3867 132.421 43.2867 135.507 42.9877 138.603C42.6547 141.693 42.1047 144.805 40.9397 147.74C40.3557 149.201 39.6326 150.622 38.6956 151.903C37.7706 153.193 36.6217 154.314 35.3847 155.28C32.8907 157.202 30.1037 158.584 27.4777 160.177C24.8497 161.733 22.3187 163.623 20.7637 166.329C22.1167 163.505 24.6547 161.465 27.2167 159.762C29.8147 158.073 32.5527 156.611 34.9047 154.68C36.0677 153.705 37.1196 152.624 37.9926 151.4C38.8686 150.178 39.5457 148.817 40.0927 147.409C41.1847 144.581 41.6927 141.544 41.9937 138.503C42.3187 135.454 42.4497 132.361 42.8217 129.271C43.2077 126.194 43.8057 123.066 45.1577 120.216C46.4767 117.37 48.3187 114.777 50.5757 112.624C52.8517 110.495 55.4967 108.76 58.3867 107.655Z" fill="white"/>
<path d="M71.8436 122.497C70.6706 123.293 69.5646 124.168 68.6186 125.199C67.6436 126.196 66.8046 127.318 66.1106 128.513C64.6776 130.901 64.0346 133.599 63.5816 136.382C63.3256 137.768 63.0896 139.178 62.7176 140.571C62.3276 141.958 61.8556 143.325 61.2136 144.611C59.9756 147.202 58.2716 149.563 56.1816 151.484C57.0636 150.373 57.9106 149.246 58.6136 148.03C59.3476 146.836 59.9886 145.59 60.5116 144.297C61.6056 141.719 62.1496 139.008 62.5986 136.205C62.8576 134.812 63.1266 133.398 63.5736 132.016C64.0336 130.638 64.6476 129.306 65.4606 128.107C66.2676 126.907 67.2066 125.799 68.2816 124.846C69.3666 123.909 70.5586 123.098 71.8436 122.497Z" fill="white"/>
</g>
</g>
</svg>
