<svg width="75" height="50" viewBox="0 0 75 50" fill="none" xmlns="http://www.w3.org/2000/svg">
<path fill-rule="evenodd" clip-rule="evenodd" d="M0.261719 0H8.16931L12.551 30.1349L16.8253 0H71.0045L69.1883 8.65596H23.4512L16.505 48.3017H8.59695L0.261719 0Z" fill="white"/>
<path fill-rule="evenodd" clip-rule="evenodd" d="M72.3941 37.0812C72.6079 41.7827 69.9364 48.9427 64.0584 48.9427C57.22 48.9427 55.7236 40.501 55.7236 36.9742H61.2805C61.2805 39.0043 62.9906 41.0352 64.2727 41.0352C65.5552 41.0352 66.8381 39.4319 66.8381 38.3637C66.8381 37.2946 66.4105 35.6922 64.3804 34.3027C57.7541 30.3487 56.2582 25.7533 56.2582 21.7997C56.0444 17.0977 58.2882 10.1515 64.1658 10.1515C70.0438 10.1515 71.6466 18.3802 71.6466 21.7997H66.4105C66.4105 19.8761 65.128 18.4871 63.8459 18.4871C62.5634 18.4871 61.7081 19.7692 61.7081 20.8383C61.7081 21.907 61.9219 22.8688 63.9528 24.2578C66.7308 25.5403 72.3941 29.7077 72.3941 37.0812ZM72.7114 46.1648C72.9364 46.1644 73.1593 46.2085 73.3673 46.2945C73.5752 46.3804 73.7641 46.5066 73.9232 46.6657C74.0823 46.8248 74.2085 47.0137 74.2944 47.2216C74.3804 47.4296 74.4245 47.6524 74.4241 47.8775C74.4256 48.1033 74.3824 48.3272 74.2969 48.5362C74.2115 48.7452 74.0856 48.9353 73.9264 49.0955C73.7672 49.2557 73.5779 49.3828 73.3694 49.4695C73.1609 49.5562 72.9373 49.6008 72.7114 49.6008C72.4849 49.6014 72.2605 49.5573 72.0512 49.471C71.8418 49.3846 71.6515 49.2577 71.4914 49.0975C71.3312 48.9374 71.2043 48.7471 71.1179 48.5377C71.0316 48.3283 70.9875 48.104 70.9881 47.8775C70.9881 46.9293 71.7586 46.1648 72.7114 46.1648V45.7664C71.5371 45.7664 70.5893 46.7142 70.5893 47.8779C70.5889 48.1567 70.6436 48.4328 70.7501 48.6904C70.8566 48.9481 71.0129 49.1822 71.21 49.3793C71.4071 49.5764 71.6412 49.7327 71.8989 49.8392C72.1565 49.9458 72.4326 50.0004 72.7114 50C73.8747 50 74.8229 49.0522 74.8229 47.8779C74.822 47.3182 74.5993 46.7816 74.2035 46.3858C73.8077 45.99 73.2712 45.7673 72.7114 45.7664V46.1648Z" fill="white"/>
<path fill-rule="evenodd" clip-rule="evenodd" d="M72.2859 47.0857H72.8404C73.0614 47.0857 73.3847 47.0857 73.3847 47.3814C73.3847 47.6725 73.2065 47.7319 72.9537 47.7259H72.2859V48.0658H72.7326L73.2387 49.0352H73.7614L73.2061 48.0658C73.6104 48.0386 73.831 47.8659 73.831 47.4519C73.831 47.2147 73.7665 46.9937 73.5616 46.8596C73.3894 46.7519 73.1365 46.7459 72.9426 46.7459H71.8379V49.0352H72.2855L72.2859 47.0857ZM26.2289 35.4783L28.3663 21.5858L30.5037 35.4783H26.2289ZM24.9468 43.279H31.5723L32.4272 48.3012H43.0063V28.4251L49.5249 48.3012H54.9748V11.327H49.418V30.1349L43.2201 11.327H37.4499V46.0574L31.4654 11.327H25.2672L18.8555 48.3012H24.3054L24.9468 43.279Z" fill="white"/>
</svg>
