<svg width="144" height="36" viewBox="0 0 144 36" fill="none" xmlns="http://www.w3.org/2000/svg">
<path d="M60.9042 9.12405L64.5214 11.8753C64.9529 11.4087 65.4643 10.9688 66.065 10.6168C67.3292 9.87581 68.8351 9.45545 69.7598 8.31861C71.3935 6.31008 71.849 3.93814 69.5829 2.21447C66.3981 -0.208075 61.2912 4.74872 60.9042 9.12405ZM59.9606 10.3216C54.9323 14.9657 62.9807 19.5318 63.6407 13.1207L59.9606 10.3216Z" fill="white"/>
<path d="M4.4681 29.197L0 14.0327H6.03241L9.15997 26.2143H6.27782L11.6064 10.1678H17.0356L22.1632 26.2143H19.348L24.6432 11.0328H30.2399L23.7718 29.197H17.6053L13.2486 16.6295H15.1254L10.6346 29.197H4.4681Z" fill="white"/>
<path d="M41.3161 29.197V25.8122L40.8804 24.9743V18.7408C40.8804 17.7354 40.5676 16.9646 39.942 16.4284C39.3388 15.8699 38.3669 15.5906 37.0263 15.5906C36.155 15.5906 35.2725 15.7358 34.3788 16.0262C33.4851 16.2944 32.7255 16.6742 32.0999 17.1657L29.955 12.8425C30.9828 12.1722 32.2116 11.6583 33.6415 11.3009C35.0937 10.921 36.5348 10.7311 37.9647 10.7311C40.9139 10.7311 43.1928 11.4126 44.8015 12.7755C46.4324 14.116 47.2479 16.2273 47.2479 19.1095V29.197H41.3161ZM35.9539 29.4986C34.5017 29.4986 33.2728 29.2529 32.2674 28.7613C31.262 28.2698 30.4912 27.5995 29.955 26.7505C29.4412 25.9015 29.1842 24.952 29.1842 23.9019C29.1842 22.7848 29.4635 21.8241 30.022 21.0197C30.6029 20.1931 31.4855 19.5675 32.6696 19.143C33.8537 18.6961 35.3842 18.4727 37.2609 18.4727H41.5507V21.7905H38.1323C37.1045 21.7905 36.3784 21.9581 35.9539 22.2933C35.5518 22.6284 35.3507 23.0752 35.3507 23.6338C35.3507 24.1923 35.5629 24.6392 35.9874 24.9743C36.4119 25.3095 36.9928 25.477 37.7301 25.477C38.4227 25.477 39.0483 25.3095 39.6069 24.9743C40.1878 24.6168 40.6123 24.0806 40.8804 23.3657L41.7517 25.7116C41.4166 26.9628 40.7575 27.9123 39.7744 28.5603C38.8137 29.1858 37.5402 29.4986 35.9539 29.4986Z" fill="white"/>
<path d="M49.0617 29.197V4.33008H55.4292V29.197H49.0617Z" fill="white"/>
<path d="M62.6569 25.8457L62.8245 18.2381L70.2309 11.0328H77.7715L69.5607 19.5116L66.3099 22.1257L62.6569 25.8457ZM57.3618 29.197V18.1698H63.7294V29.197H57.3618ZM69.7001 28.197L65.1369 22.2262L69.0915 17.3333L77.4082 28.197H69.7001Z" fill="white"/>
<path d="M81.3418 29.197L74.8737 11.0328H77.8899H80.9061L86.0336 26.2143H83.1515L88.4801 11.0328H93.9093L99.0368 26.2143H96.2217L101.517 11.0328H107.114L100.645 29.197H94.479L90.1223 16.6295H91.999L87.5082 29.197H81.3418Z" fill="white"/>
<path d="M118.19 29.197V25.8122L117.754 24.9743V18.7408C117.754 17.7354 117.441 16.9646 116.816 16.4284C116.212 15.8699 115.241 15.5906 113.9 15.5906C113.029 15.5906 112.146 15.7358 111.252 16.0262C110.359 16.2944 109.599 16.6742 108.974 17.1657L106.829 12.8425C107.856 12.1722 109.085 11.6583 110.515 11.3009C111.967 10.921 113.408 10.7311 114.838 10.7311C117.788 10.7311 120.066 11.4126 121.675 12.7755C123.306 14.116 124.122 16.2273 124.122 19.1095V29.197H118.19ZM112.828 29.4986C111.375 29.4986 110.147 29.2529 109.141 28.7613C108.136 28.2698 107.365 27.5995 106.829 26.7505C106.315 25.9015 106.058 24.952 106.058 23.9019C106.058 22.7848 106.337 21.8241 106.896 21.0197C107.477 20.1931 108.359 19.5675 109.543 19.143C110.727 18.6961 112.258 18.4727 114.135 18.4727H118.424V21.7905H115.006C113.978 21.7905 113.252 21.9581 112.828 22.2933C112.425 22.6284 112.224 23.0752 112.224 23.6338C112.224 24.1923 112.437 24.6392 112.861 24.9743C113.286 25.3095 113.867 25.477 114.604 25.477C115.296 25.477 115.922 25.3095 116.481 24.9743C117.061 24.6168 117.486 24.0806 117.754 23.3657L118.625 25.7116C118.29 26.9628 117.631 27.9123 116.648 28.5603C115.687 29.1858 114.414 29.4986 112.828 29.4986Z" fill="white"/>
<path d="M128.725 36.0002C127.764 36.0002 126.792 35.8438 125.809 35.531C124.848 35.2406 124.066 34.8496 123.463 34.3581L125.675 29.9008C126.055 30.2359 126.491 30.4929 126.982 30.6716C127.496 30.8727 127.999 30.9732 128.49 30.9732C129.183 30.9732 129.73 30.8168 130.132 30.504C130.535 30.1912 130.881 29.6997 131.171 29.0294L132.009 26.9181L132.512 26.2813L137.678 14.0327H143.744L136.902 29.9343C136.276 31.4983 135.55 32.7159 134.724 33.5873C133.919 34.481 133.015 35.1065 132.009 35.464C131.026 35.8215 129.931 36.0002 128.725 36.0002ZM131.205 29.9678L123.195 11.0328H129.73L135.629 25.7116L131.205 29.9678Z" fill="white"/>
<path d="M62.675 25.853L62.8426 18.2454L70.249 11.04H77.7895L69.5788 19.5189L66.328 22.133L62.675 25.853ZM57.3799 29.2043V18.177H63.7474V29.2043H57.3799ZM69.7182 28.2043L65.155 22.2335L69.1096 17.3406L77.4263 28.2043H69.7182Z" fill="white"/>
</svg>
