<svg width="160" height="40" viewBox="0 0 160 40" fill="none" xmlns="http://www.w3.org/2000/svg">
<g clip-path="url(#clip0_1492_5250)">
<path d="M67.6711 10.1379L71.6902 13.1948C72.1957 12.6483 72.7998 12.1347 73.5148 11.7338C74.8628 10.9777 76.4402 10.5266 77.4306 9.34017C79.3105 7.08816 79.8686 4.40372 77.3141 2.46067C73.7754 -0.231049 68.1011 5.27649 67.6711 10.1379ZM66.6227 11.4686C61.0356 16.6286 69.9783 21.7021 70.7117 14.5786L66.6227 11.4686Z" fill="white"/>
<path d="M4.96455 32.441L0 15.5918H6.70268L10.1777 29.1269H6.97535L12.8961 11.2974H18.9285L24.6257 29.1269H21.4978L27.3813 12.2585H33.5999L26.4131 32.441H19.5615L14.7207 18.477H16.8059L11.8162 32.441H4.96455Z" fill="white"/>
<path d="M45.9066 32.441V28.68L45.4225 27.7491V20.823C45.4225 19.7059 45.075 18.8494 44.3799 18.2536C43.7096 17.633 42.6298 17.3227 41.1403 17.3227C40.1721 17.3227 39.1915 17.4841 38.1986 17.8068C37.2056 18.1047 36.3615 18.5267 35.6664 19.0728L33.2833 14.2693C34.4252 13.5245 35.7906 12.9535 37.3793 12.5563C38.9929 12.1343 40.5941 11.9233 42.1829 11.9233C45.4598 11.9233 47.9919 12.6805 49.7793 14.1948C51.5915 15.6843 52.4976 18.0302 52.4976 21.2326V32.441H45.9066ZM39.9487 32.7761C38.3351 32.7761 36.9697 32.503 35.8526 31.9569C34.7355 31.4107 33.8791 30.666 33.2833 29.7227C32.7123 28.7793 32.4268 27.7243 32.4268 26.5575C32.4268 25.3163 32.7371 24.2488 33.3577 23.3551C34.0032 22.4366 34.9838 21.7415 36.2995 21.2698C37.6152 20.7733 39.3157 20.5251 41.4009 20.5251H46.1673V24.2116H42.3691C41.2272 24.2116 40.4204 24.3977 39.9487 24.7701C39.5019 25.1425 39.2784 25.639 39.2784 26.2596C39.2784 26.8802 39.5143 27.3767 39.9859 27.7491C40.4576 28.1215 41.103 28.3076 41.9223 28.3076C42.6918 28.3076 43.3869 28.1215 44.0075 27.7491C44.653 27.3519 45.1247 26.7561 45.4225 25.9617L46.3907 28.5683C46.0183 29.9585 45.286 31.0135 44.1937 31.7335C43.1263 32.4285 41.7113 32.7761 39.9487 32.7761Z" fill="white"/>
<path d="M54.5127 32.441V4.81104H61.5877V32.441H54.5127Z" fill="white"/>
<path d="M69.6189 28.717L69.8051 20.2642L78.0345 12.2583H86.4128L77.2896 21.6792L73.6777 24.5837L69.6189 28.717ZM63.7354 32.4408V20.1883H70.8105V32.4408H63.7354ZM77.4447 31.3297L72.3744 24.6954L76.7684 19.2588L86.0092 31.3297H77.4447Z" fill="white"/>
<path d="M90.3801 32.4408L83.1934 12.2583H86.5447H89.896L95.5933 29.1267H92.3909L98.3116 12.2583H104.344L110.041 29.1267H106.913L112.796 12.2583H119.015L111.828 32.4408H104.977L100.136 18.4768H102.221L97.2318 32.4408H90.3801Z" fill="white"/>
<path d="M131.322 32.441V28.68L130.838 27.7491V20.823C130.838 19.7059 130.49 18.8494 129.795 18.2536C129.125 17.633 128.045 17.3227 126.556 17.3227C125.587 17.3227 124.607 17.4841 123.614 17.8068C122.621 18.1047 121.777 18.5267 121.082 19.0728L118.699 14.2693C119.84 13.5245 121.206 12.9535 122.795 12.5563C124.408 12.1343 126.009 11.9233 127.598 11.9233C130.875 11.9233 133.407 12.6805 135.195 14.1948C137.007 15.6843 137.913 18.0302 137.913 21.2326V32.441H131.322ZM125.364 32.7761C123.75 32.7761 122.385 32.503 121.268 31.9569C120.151 31.4107 119.294 30.666 118.699 29.7227C118.128 28.7793 117.842 27.7243 117.842 26.5575C117.842 25.3163 118.152 24.2488 118.773 23.3551C119.418 22.4366 120.399 21.7415 121.715 21.2698C123.03 20.7733 124.731 20.5251 126.816 20.5251H131.583V24.2116H127.784C126.642 24.2116 125.836 24.3977 125.364 24.7701C124.917 25.1425 124.694 25.639 124.694 26.2596C124.694 26.8802 124.93 27.3767 125.401 27.7491C125.873 28.1215 126.518 28.3076 127.338 28.3076C128.107 28.3076 128.802 28.1215 129.423 27.7491C130.068 27.3519 130.54 26.7561 130.838 25.9617L131.806 28.5683C131.434 29.9585 130.701 31.0135 129.609 31.7335C128.542 32.4285 127.127 32.7761 125.364 32.7761Z" fill="white"/>
<path d="M143.028 39.9999C141.96 39.9999 140.88 39.8261 139.788 39.4786C138.72 39.1558 137.852 38.7214 137.181 38.1753L139.639 33.2227C140.061 33.5951 140.545 33.8806 141.091 34.0792C141.662 34.3026 142.221 34.4143 142.767 34.4143C143.536 34.4143 144.145 34.2406 144.591 33.893C145.038 33.5455 145.423 32.9993 145.746 32.2546L146.677 29.9086L147.235 29.2011L152.976 15.5916H159.716L152.113 33.26C151.418 34.9977 150.612 36.3507 149.693 37.3188C148.799 38.3118 147.794 39.0069 146.677 39.4041C145.584 39.8013 144.368 39.9999 143.028 39.9999ZM145.783 33.2972L136.883 12.2583H144.145L150.698 28.5681L145.783 33.2972Z" fill="white"/>
<path d="M69.6393 28.7254L69.8255 20.2726L78.0549 12.2666H86.4333L77.3102 21.6876L73.6982 24.5921L69.6393 28.7254ZM63.7559 32.4491V20.1966H70.8309V32.4491H63.7559ZM77.4651 31.338L72.3949 24.7038L76.7888 19.2672L86.0296 31.338H77.4651Z" fill="white"/>
</g>
<defs>
<clipPath id="clip0_1492_5250">
<rect width="160" height="40" fill="white"/>
</clipPath>
</defs>
</svg>
